#!OML:ASF I:\Actors\actors\Patient Classification 2\Patient 1\Session 1\actor1.ASF
:FULLY-SPECIFIED
:DEGREES
252
root -0.676982 18.7882 5.15242 4.74084 -1.3695 -1.85874
lowerback 9.80852 1.12462 -1.89856
upperback 3.30024 1.29081 -0.606508
thorax -2.09683 0.63926 0.292994
lowerneck -12.5781 -2.72388 -3.04987
upperneck 32.524 -4.43107 3.83768
head 13.1393 -1.82394 1.37505
rclavicle 1.98785e-016 -4.77083e-015
rhumerus 4.94481 51.9799 -56.9391
rradius 82.5548
rwrist 39.915
rhand -32.0453 -36.8102
rfingers 7.12502
rthumb -5.29249 -66.7241
lclavicle 1.98785e-016 -4.77083e-015
lhumerus 5.12843 -51.2085 61.0101
lradius 81.7991
lwrist -10.7452
lhand -7.55884 -17.9538
lfingers 7.12502
lthumb 18.3333 11.2023
rfemur 0 0 0
rtibia 0
rfoot 0 0
rtoes 0
lfemur -9.53135 -7.46582 -11.8559
ltibia 21.7582
lfoot -22.6382 16.5359
ltoes -53.764
253
root -0.677707 18.79 5.12302 4.72584 -1.33561 -1.86895
lowerback 10.2205 1.18895 -1.96367
upperback 3.49961 1.36343 -0.531788
thorax -2.12096 0.673764 0.39259
lowerneck -12.7965 -2.79325 -3.13877
upperneck 32.4611 -4.44157 3.67099
head 13.158 -1.85701 1.32079
rclavicle 1.07344e-014 -5.56597e-015
rhumerus 8.47815 52.7559 -54.407
rradius 79.6456
rwrist 41.0105
rhand -34.6487 -40.0378
rfingers 7.12502
rthumb -7.80575 -69.8737
lclavicle 1.07344e-014 -5.56597e-015
lhumerus 7.13568 -51.4164 60.2429
lradius 79.9315
lwrist -12.4312
lhand -9.72921 -19.2874
lfingers 7.12502
lthumb 16.2444 10.0521
rfemur 0 0 0
rtibia 0
rfoot 0 0
rtoes 0
lfemur -9.65207 -7.44146 -11.8238
ltibia 21.7974
lfoot -22.529 16.507
ltoes -53.7246
254
root -0.678563 18.7921 5.09583 4.84584 -1.29077 -1.87823
lowerback 10.4719 1.27084 -2.00126
upperback 3.73258 1.46692 -0.439626
thorax -2.02245 0.72245 0.494363
lowerneck -13.0808 -2.89406 -3.32108
upperneck 32.274 -4.48822 3.57578
head 13.1444 -1.90756 1.30339
rclavicle -1.78906e-015 1.19271e-015
rhumerus 10.177 52.6608 -53.9546
rradius 76.913
rwrist 42.7984
rhand -36.731 -43.0623
rfingers 7.12502
rthumb -9.81513 -72.8135
lclavicle -1.78906e-015 1.19271e-015
lhumerus 8.52452 -51.2234 60.6771
lradius 77.6756
lwrist -13.1706
lhand -11.3893 -20.0087
lfingers 7.12502
lthumb 14.6455 9.45408
rfemur 0 0 0
rtibia 0
rfoot 0 0
rtoes 0
lfemur -9.92994 -7.31503 -11.7676
ltibia 21.8395
lfoot -22.4182 16.4315
ltoes -53.7868
255
root -0.680251 18.794 5.06687 5.0341 -1.19973 -1.8257
lowerback 10.6899 1.35037 -2.07193
upperback 3.97629 1.56324 -0.401995
thorax -1.89374 0.767187 0.559774
lowerneck -13.2526 -2.9932 -3.43505
upperneck 31.8798 -4.57801 3.57992
head 13.022 -1.95866 1.3059
rclavicle 2.74323e-014 5.96354e-015
rhumerus 10.3771 51.8433 -55.2728
rradius 74.5756
rwrist 44.4522
rhand -38.3433 -45.1516
rfingers 7.12502
rthumb -11.3704 -74.8233
lclavicle 2.74323e-014 5.96354e-015
lhumerus 9.67249 -50.8795 61.6253
lradius 75.2457
lwrist -13.6695
lhand -13.1962 -21.2408
lfingers 7.12502
lthumb 12.9041 8.34026
rfemur 0 0 0
rtibia 0
rfoot 0 0
rtoes 0
lfemur -10.2957 -7.3306 -11.7656
ltibia 21.8821
lfoot -22.3389 16.4239
ltoes -53.8557
256
root -0.68234 18.7947 5.03311 5.24834 -1.08318 -1.77344
lowerback 10.9369 1.41977 -2.17941
upperback 4.26691 1.64218 -0.355828
thorax -1.73267 0.802095 0.656649
lowerneck -13.4136 -3.07632 -3.53313
upperneck 31.3245 -4.66769 3.66096
head 12.833 -1.99921 1.3343
rclavicle -2.16675e-014 6.36111e-015
rhumerus 10.0342 50.5733 -57.2436
rradius 72.6865
rwrist 45.588
rhand -39.5517 -46.8283
rfingers 7.12502
rthumb -12.5356 -76.4323
lclavicle -2.16675e-014 6.36111e-015
lhumerus 10.6078 -50.3763 62.7348
lradius 73.0306
lwrist -14.5817
lhand -15.8344 -23.4877
lfingers 7.12502
lthumb 10.3599 6.23708
rfemur 0 0 0
rtibia 0
rfoot 0 0
rtoes 0
lfemur -10.724 -7.26544 -11.7692
ltibia 21.9116
lfoot -22.0032 16.5176
ltoes -54.074
257
root -0.684372 18.7953 4.99692 5.48898 -0.962118 -1.72811
lowerback 11.51 1.50053 -2.11277
upperback 4.40034 1.73985 -0.396311
thorax -1.90557 0.851528 0.552996
lowerneck -13.5465 -3.18895 -3.61523
upperneck 30.8576 -4.82281 3.78852
head 12.6813 -2.06063 1.36893
rclavicle -8.94531e-015 4.77083e-015
rhumerus 9.17952 48.9057 -59.7969
rradius 71.0442
rwrist 46.0622
rhand -40.803 -48.5407
rfingers 7.12502
rthumb -13.7418 -78.0669
lclavicle -8.94531e-015 4.77083e-015
lhumerus 10.7879 -49.759 64.3593
lradius 71.1966
lwrist -15.992
lhand -19.3277 -26.3708
lfingers 7.12502
lthumb 6.98881 3.49381
rfemur 0 0 0
rtibia 0
rfoot 0 0
rtoes 0
lfemur -11.2031 -6.99866 -11.7771
ltibia 21.9271
lfoot -21.4053 16.6251
ltoes -54.1706
258
root -0.687068 18.7984 4.96216 5.7886 -0.887447 -1.65608
lowerback 11.6109 1.49837 -2.36658
upperback 4.77896 1.71434 -0.308613
thorax -1.5748 0.830435 0.793054
lowerneck -13.7863 -3.1964 -3.61604
upperneck 30.2043 -4.77638 3.72192
head 12.4598 -2.04946 1.34218
rclavicle 7.35503e-015 3.18055e-015
rhumerus 9.27538 47.299 -61.6486
rradius 69.5431
rwrist 45.8354
rhand -42.3985 -50.1357
rfingers 7.12502
rthumb -15.279 -79.5514
lclavicle 7.35503e-015 3.18055e-015
lhumerus 10.6538 -48.1654 66.2734
lradius 69.754
lwrist -17.6002
lhand -22.6997 -28.7426
lfingers 7.12502
lthumb 3.73309 1.20449
rfemur 0 0 0
rtibia 0
rfoot 0 0
rtoes 0
lfemur -11.7094 -6.77006 -11.7951
ltibia 21.9403
lfoot -21.0156 16.598
ltoes -54.5387
259
root -0.690411 18.8032 4.92894 6.08891 -0.901661 -1.63624
lowerback 11.967 1.52076 -2.39977
upperback 4.99854 1.73116 -0.339339
thorax -1.53937 0.83636 0.772318
lowerneck -13.8064 -3.2041 -3.61934
upperneck 29.5521 -4.7962 3.84541
head 12.205 -2.04718 1.38155
rclavicle -4.37326e-015 2.38542e-015
rhumerus 8.97468 45.0288 -64.0099
rradius 68.0221
rwrist 45.5779
rhand -45.2699 -47.2114
rfingers 7.12502
rthumb -18.0433 -76.3945
lclavicle -4.37326e-015 2.38542e-015
lhumerus 10.0776 -46.341 68.4084
lradius 68.6189
lwrist -18.9382
lhand -24.8906 -30.5834
lfingers 7.12502
lthumb 1.61723 -0.609822
rfemur 0 0 0
rtibia 0
rfoot 0 0
rtoes 0
lfemur -12.1634 -6.65005 -11.7461
ltibia 21.9444
lfoot -20.8796 16.5463
ltoes -54.478
260
root -0.693472 18.8089 4.89827 6.33623 -0.981506 -1.65959
lowerback 12.4215 1.56458 -2.28629
upperback 5.19511 1.78766 -0.416045
thorax -1.5762 0.864849 0.613103
lowerneck -13.8519 -3.2319 -3.73447
upperneck 29 -4.86594 4.12863
head 12.0093 -2.05862 1.49286
rclavicle -1.03368e-014 7.95139e-015
rhumerus 8.68782 43.1162 -66.1653
rradius 66.7449
rwrist 45.6447
rhand -46.8455 -46.3732
rfingers 7.12502
rthumb -19.5588 -75.4094
lclavicle -1.03368e-014 7.95139e-015
lhumerus 9.63617 -44.3895 70.4692
lradius 67.436
lwrist -19.9747
lhand -26.2893 -33.0784
lfingers 7.12502
lthumb 0.266308 -3.09883
rfemur 0 0 0
rtibia 0
rfoot 0 0
rtoes 0
lfemur -12.5187 -6.63398 -11.6647
ltibia 21.9354
lfoot -20.8319 16.6326
ltoes -54.406
261
root -0.696805 18.8152 4.87099 6.57877 -1.05891 -1.60779
lowerback 12.8678 1.62969 -2.15362
upperback 5.35809 1.87272 -0.570525
thorax -1.63987 0.909135 0.357258
lowerneck -13.9658 -3.29881 -3.8245
upperneck 28.6163 -5.02092 4.47494
head 11.9021 -2.09532 1.61069
rclavicle 6.16232e-015 3.18055e-015
rhumerus 8.44935 41.4698 -68.29
rradius 65.4115
rwrist 46.1593
rhand -47.6165 -48.4667
rfingers 7.12502
rthumb -20.2999 -77.4258
lclavicle 6.16232e-015 3.18055e-015
lhumerus 9.64169 -42.6911 72.0758
lradius 66.0074
lwrist -21.2375
lhand -28.1837 -36.5683
lfingers 7.12502
lthumb -1.56333 -6.59424
rfemur 0 0 0
rtibia 0
rfoot 0 0
rtoes 0
lfemur -12.8534 -6.66416 -11.6679
ltibia 21.9193
lfoot -20.8144 16.7528
ltoes -54.3577
262
root -0.700738 18.82 4.84481 6.81398 -1.11112 -1.52128
lowerback 13.1628 1.68448 -2.16449
upperback 5.59873 1.93535 -0.656378
thorax -1.5454 0.938526 0.261187
lowerneck -14.1668 -3.3539 -3.84559
upperneck 28.1765 -5.11979 4.65274
head 11.7821 -2.12005 1.65952
rclavicle 1.43125e-014 4.77083e-015
rhumerus 8.59985 40.0264 -69.9986
rradius 63.9703
rwrist 47.4995
rhand -47.8267 -52.7641
rfingers 7.12502
rthumb -20.5019 -81.7016
lclavicle 1.43125e-014 4.77083e-015
lhumerus 10.1854 -41.0933 73.2202
lradius 64.5065
lwrist -22.6758
lhand -30.4853 -40.399
lfingers 7.12502
lthumb -3.78611 -10.4529
rfemur 0 0 0
rtibia 0
rfoot 0 0
rtoes 0
lfemur -13.1866 -6.66759 -11.7062
ltibia 21.8974
lfoot -20.7643 16.8217
ltoes -54.3296
263
root -0.704304 18.8241 4.81862 7.02951 -1.13508 -1.47767
lowerback 13.38 1.75015 -2.21338
upperback 5.90857 2.014 -0.637123
thorax -1.3412 0.973089 0.296582
lowerneck -14.4758 -3.43662 -3.91715
upperneck 27.6708 -5.19745 4.69898
head 11.656 -2.1557 1.66881
rclavicle -1.5704e-014 1.74931e-014
rhumerus 9.05841 37.9138 -71.3805
rradius 62.7777
rwrist 48.188
rhand -48.7732 -53.3897
rfingers 7.12502
rthumb -21.4112 -82.2266
lclavicle -1.5704e-014 1.74931e-014
lhumerus 11.1515 -39.5602 74.2226
lradius 63.1993
lwrist -23.5196
lhand -32.1168 -44.1964
lfingers 7.12502
lthumb -5.36155 -14.2843
rfemur 0 0 0
rtibia 0
rfoot 0 0
rtoes 0
lfemur -13.5106 -6.54472 -11.7021
ltibia 21.8781
lfoot -20.607 16.7968
ltoes -54.3375
